<?xml version="1.0" standalone="no"?>
<!DOCTYPE svg PUBLIC "-//W3C//DTD SVG 20010904//EN"
 "http://www.w3.org/TR/2001/REC-SVG-20010904/DTD/svg10.dtd">
<svg version="1.0" xmlns="http://www.w3.org/2000/svg"
 width="800.000000pt" height="800.000000pt" viewBox="0 0 800.000000 800.000000"
 preserveAspectRatio="xMidYMid meet">
<metadata>
Created by potrace 1.14, written by Peter Selinger 2001-2017
</metadata>
<g transform="translate(0.000000,800.000000) scale(0.100000,-0.100000)"
fill="#000000" stroke="none">
<path d="M3791 7329 c-112 -65 -206 -119 -208 -119 -1 0 -31 -17 -65 -38 -35
-21 -200 -118 -368 -214 -168 -97 -521 -301 -785 -453 -264 -153 -495 -286
-513 -297 -113 -64 -299 -171 -307 -178 -5 -4 -35 -21 -65 -37 -121 -67 -326
-186 -338 -198 -11 -10 26 -35 190 -130 112 -65 228 -131 258 -148 30 -16 62
-35 70 -42 22 -18 49 -25 55 -15 3 5 18 15 33 23 15 7 104 58 197 112 94 54
190 109 215 123 25 14 61 35 80 47 19 12 55 33 80 47 25 14 77 44 117 67 39
22 87 49 105 60 18 10 74 42 123 71 50 29 106 61 125 72 19 11 76 44 127 74
51 30 94 54 96 54 2 0 44 24 93 53 49 30 109 65 134 79 25 14 133 76 240 138
107 62 209 120 225 130 17 9 90 52 163 94 l133 77 107 -62 c59 -34 125 -72
147 -84 22 -13 134 -77 248 -144 115 -67 210 -121 212 -121 2 0 33 -18 70 -41
64 -39 96 -57 175 -101 19 -11 69 -39 110 -63 l75 -44 50 28 c261 148 514 298
516 306 0 5 -12 16 -27 25 -16 8 -49 27 -74 41 -25 15 -61 36 -80 47 -19 10
-75 43 -123 71 -49 28 -93 51 -98 51 -5 0 -9 3 -9 8 0 4 -10 12 -23 18 -17 8
-245 138 -357 204 -62 37 -514 298 -550 318 -25 14 -118 67 -207 119 -89 51
-163 93 -165 92 -2 0 -95 -54 -207 -120z"/>
<path d="M5975 5927 c-181 -104 -351 -201 -376 -216 -25 -14 -159 -91 -298
-171 -138 -80 -269 -154 -289 -166 -64 -36 -442 -253 -572 -329 -69 -40 -143
-83 -165 -95 -21 -12 -89 -51 -151 -86 -61 -35 -114 -64 -117 -64 -7 0 -80 42
-562 320 -126 73 -250 144 -275 158 -25 14 -102 58 -172 99 -70 40 -131 73
-136 73 -4 0 -65 -34 -136 -75 -71 -41 -131 -75 -133 -75 -3 0 -17 -8 -31 -18
-15 -11 -58 -36 -97 -57 -38 -21 -81 -45 -95 -54 -14 -9 -38 -23 -53 -31 -22
-11 -25 -16 -15 -26 18 -16 278 -164 289 -164 5 0 9 -4 9 -10 0 -5 4 -10 9
-10 8 0 597 -336 704 -401 26 -16 49 -29 51 -29 3 0 40 -21 83 -46 43 -26 98
-58 123 -72 62 -35 368 -210 406 -233 l30 -18 105 60 c57 33 124 72 149 86 25
14 230 131 455 261 226 130 559 321 740 425 182 104 404 232 495 285 91 52
180 103 198 113 352 201 718 412 725 419 10 9 -4 19 -73 57 -30 17 -143 81
-250 143 -107 61 -206 118 -220 125 -23 12 -46 0 -355 -178z"/>
<path d="M1000 5209 l1 -334 176 -100 c96 -55 187 -107 202 -115 14 -9 60 -35
101 -58 41 -24 91 -52 110 -64 19 -11 114 -65 210 -121 514 -296 624 -359 715
-412 55 -32 118 -68 140 -80 22 -13 81 -47 130 -75 50 -29 115 -66 145 -83 30
-17 79 -45 108 -64 29 -18 55 -33 58 -33 3 0 39 -20 80 -45 40 -25 77 -45 81
-45 5 -1 18 -9 30 -19 l21 -18 0 -657 c0 -361 1 -659 3 -661 2 -2 60 -36 129
-75 198 -114 382 -221 417 -242 l31 -18 -1 997 -2 998 -185 107 c-102 59 -201
116 -220 126 -19 11 -120 69 -225 129 -104 61 -426 246 -715 413 -289 166
-644 371 -790 455 -146 84 -281 162 -300 172 -19 11 -121 70 -226 131 -106 62
-199 115 -208 118 -15 6 -16 -24 -16 -327z"/>
<path d="M6890 5479 c-58 -34 -123 -71 -145 -84 -22 -12 -60 -34 -85 -48 -25
-15 -87 -50 -137 -78 -69 -39 -93 -57 -94 -73 -1 -12 -2 -610 -3 -1329 l-1
-1308 -50 -31 c-27 -17 -122 -73 -210 -123 -300 -172 -560 -322 -613 -354 -29
-17 -54 -31 -56 -31 -2 0 -53 -29 -112 -64 l-109 -65 0 -330 c0 -182 2 -331 5
-331 3 0 57 30 120 66 63 37 135 78 160 92 25 14 62 36 82 49 21 12 40 23 43
23 3 0 22 11 43 24 33 21 637 368 702 404 14 7 39 21 55 31 37 22 47 28 310
179 l210 120 3 1661 c1 914 -1 1661 -5 1661 -5 0 -55 -28 -113 -61z"/>
<path d="M5805 4872 c-16 -10 -52 -31 -80 -47 -49 -27 -248 -142 -605 -351
-97 -56 -198 -114 -225 -129 -28 -15 -62 -36 -77 -46 -14 -11 -29 -19 -32 -19
-4 0 -78 -42 -151 -87 -11 -7 -27 -16 -35 -20 -8 -4 -64 -36 -125 -71 -60 -36
-126 -74 -145 -85 -19 -10 -76 -44 -126 -73 l-92 -54 0 -1670 0 -1670 32 19
c17 10 96 56 176 101 80 45 165 95 190 110 25 15 66 39 91 53 25 13 55 31 67
38 l22 14 0 1331 c0 1255 1 1332 18 1346 9 8 141 86 292 173 151 87 316 182
365 211 347 202 438 254 442 254 2 0 10 6 17 13 10 10 13 89 13 345 0 182 -1
332 -1 332 -1 0 -14 -8 -31 -18z"/>
<path d="M1002 3213 c3 -986 3 -998 23 -1008 18 -9 85 -48 188 -108 18 -11
149 -87 292 -169 143 -83 359 -208 480 -278 243 -141 403 -233 453 -262 18
-10 103 -59 187 -108 84 -49 169 -98 187 -108 18 -11 73 -43 121 -71 49 -28
93 -51 98 -51 5 0 9 -4 9 -10 0 -5 4 -10 10 -10 5 0 74 -37 152 -83 79 -46
251 -146 383 -222 132 -76 254 -146 272 -157 l31 -18 -1 336 -2 336 -380 220
c-209 121 -398 230 -420 243 -22 12 -96 55 -165 95 -69 40 -138 80 -155 89
-16 9 -31 19 -33 24 -2 4 -7 7 -11 7 -5 0 -102 54 -216 121 -115 66 -227 131
-249 143 -23 13 -126 73 -231 134 -104 60 -213 123 -240 138 -28 16 -85 49
-127 74 l-78 45 0 667 c0 660 0 667 -20 673 -11 4 -48 23 -83 44 -34 21 -82
49 -107 63 -25 14 -85 49 -135 78 -49 29 -110 64 -135 78 -25 14 -54 31 -65
38 -11 8 -23 14 -27 14 -5 0 -7 -449 -6 -997z"/>
</g>
</svg>
